# Blender v2.80 (sub 74) OBJ File: ''
# www.blender.org
o Cube_Cube.001
v -4.000000 -4.000000 -1.000000
v -4.000000 -4.000000 1.000000
v -4.000000 4.000000 -1.000000
v -4.000000 4.000000 1.000000
v 4.000000 -4.000000 -1.000000
v 4.000000 -4.000000 1.000000
v 4.000000 4.000000 -1.000000
v 4.000000 4.000000 1.000000
v -4.000000 -4.000000 5.000000
v -4.000000 4.000000 5.000000
v 4.000000 4.000000 3.000000
v 4.000000 4.000000 2.500000
v 4.000000 4.000000 2.000000
v 4.000000 4.000000 1.500000
v -4.000000 4.000000 1.500000
v -4.000000 4.000000 2.000000
v -4.000000 4.000000 2.500000
v -4.000000 4.000000 3.000000
v -4.000000 4.000000 3.500000
v -4.000000 4.000000 4.000000
v -4.000000 4.000000 4.500000
v 4.000000 -4.000000 4.000000
v 4.000000 -4.000000 3.500000
v 4.000000 -4.000000 3.000000
v 4.000000 -4.000000 2.500000
v 4.000000 -4.000000 2.000000
v 4.000000 -4.000000 1.500000
v -4.000000 -4.000000 1.500000
v -4.000000 -4.000000 2.000000
v -4.000000 -4.000000 2.500000
v -4.000000 -4.000000 3.000000
v -4.000000 -4.000000 3.500000
v -4.000000 -4.000000 4.000000
v -4.000000 -4.000000 4.500000
vt 0.625000 0.000000
vt 0.375000 0.250000
vt 0.375000 0.000000
vt 0.625000 0.250000
vt 0.375000 0.500000
vt 0.625000 0.500000
vt 0.375000 0.750000
vt 0.625000 0.750000
vt 0.375000 1.000000
vt 0.625000 0.000000
vt 0.625000 0.250000
vt 0.625000 0.250000
vt 0.625000 0.750000
vt 0.625000 1.000000
vt 0.625000 1.000000
vt 0.625000 0.750000
vt 0.625000 1.000000
vt 0.625000 1.000000
vt 0.625000 0.750000
vt 0.625000 1.000000
vt 0.625000 1.000000
vt 0.625000 0.000000
vt 0.625000 0.250000
vt 0.625000 0.250000
vt 0.625000 0.000000
vt 0.625000 0.250000
vt 0.625000 0.250000
vt 0.625000 0.000000
vt 0.625000 0.250000
vt 0.625000 0.250000
vt 0.625000 0.500000
vt 0.625000 0.750000
vt 0.625000 0.500000
vt 0.625000 0.750000
vt 0.625000 0.500000
vt 0.625000 1.000000
vt 0.625000 0.000000
vt 0.625000 0.750000
vt 0.625000 0.000000
vt 0.625000 0.000000
vt 0.625000 0.000000
vt 0.625000 0.500000
vn -1.0000 0.0000 0.0000
vn 0.0000 1.0000 0.0000
vn 1.0000 0.0000 0.0000
vn 0.0000 -1.0000 0.0000
s off
f 2/1/1 3/2/1 1/3/1
f 4/4/2 7/5/2 3/2/2
f 8/6/3 5/7/3 7/5/3
f 6/8/4 1/9/4 5/7/4
f 34/10/1 10/11/1 21/12/1
f 27/13/4 29/14/4 28/15/4
f 25/16/4 31/17/4 30/18/4
f 23/19/4 33/20/4 32/21/4
f 28/22/1 16/23/1 15/24/1
f 30/25/1 18/26/1 17/27/1
f 32/28/1 20/29/1 19/30/1
f 14/31/3 26/32/3 27/13/3
f 12/33/3 24/34/3 25/16/3
f 15/24/2 13/35/2 14/31/2
f 2/1/1 4/4/1 3/2/1
f 4/4/2 8/6/2 7/5/2
f 8/6/3 6/8/3 5/7/3
f 6/8/4 2/36/4 1/9/4
f 34/10/1 9/37/1 10/11/1
f 27/13/4 26/32/4 29/14/4
f 25/16/4 24/34/4 31/17/4
f 23/19/4 22/38/4 33/20/4
f 28/22/1 29/39/1 16/23/1
f 30/25/1 31/40/1 18/26/1
f 32/28/1 33/41/1 20/29/1
f 14/31/3 13/35/3 26/32/3
f 12/33/3 11/42/3 24/34/3
f 15/24/2 16/23/2 13/35/2
