# Blender v2.80 (sub 74) OBJ File: ''
# www.blender.org
o Cube
v 80.000000 80.000000 80.000000
v 80.000000 80.000000 -80.000000
v 80.000000 -80.000000 80.000000
v 80.000000 -80.000000 -80.000000
v -80.000000 80.000000 80.000000
v -80.000000 80.000000 -80.000000
v -80.000000 -80.000000 80.000000
v -80.000000 -80.000000 -80.000000
vt 0.250000 0.666600
vt 0.500000 0.999000
vt 0.500000 0.666600
vt 0.750000 0.666600
vt 1.000000 0.333000
vt 0.750000 0.333300
vt 0.000000 0.666600
vt 0.250000 0.333300
vt 0.000000 0.333300
vt 0.500000 0.333300
vt 0.250000 0.001000
vt 0.250000 0.999000
vt 1.000000 0.666600
vt 0.500000 0.001000
vn 0.0000 0.0000 1.0000
vn 0.0000 -1.0000 0.0000
vn -1.0000 0.0000 0.0000
vn 0.0000 0.0000 -1.0000
vn 1.0000 0.0000 0.0000
vn 0.0000 1.0000 0.0000
s off
f 5/1/1 3/2/1 1/3/1
f 3/4/2 8/5/2 4/6/2
f 7/7/3 6/8/3 8/9/3
f 2/10/4 8/11/4 6/8/4
f 1/3/5 4/6/5 2/10/5
f 5/1/6 2/10/6 6/8/6
f 5/1/1 7/12/1 3/2/1
f 3/4/2 7/13/2 8/5/2
f 7/7/3 5/1/3 6/8/3
f 2/10/4 4/14/4 8/11/4
f 1/3/5 3/4/5 4/6/5
f 5/1/6 1/3/6 2/10/6
