# Blender v2.80 (sub 74) OBJ File: ''
# www.blender.org
o Cube
v 80.000000 80.000000 80.000000
v 80.000000 80.000000 -80.000000
v 80.000000 -80.000000 80.000000
v 80.000000 -80.000000 -80.000000
v -80.000000 80.000000 80.000000
v -80.000000 80.000000 -80.000000
v -80.000000 -80.000000 80.000000
v -80.000000 -80.000000 -80.000000
vt 0.333317 0.500475
vt -0.000017 0.999975
vt 0.333317 0.999975
vt 0.333000 0.500000
vt 0.666000 0.000000
vt 0.333000 0.000000
vt 0.666000 0.500000
vt 1.000000 0.000000
vt 0.000000 0.000000
vt 0.333000 0.500000
vt 0.333000 0.000000
vt 0.666000 1.000000
vt 1.000000 0.500000
vt 0.666000 0.500000
vt 0.333000 1.000000
vt 0.333000 0.500000
vt -0.000017 0.500025
vt 1.000000 0.500000
vt 0.000000 0.500000
vt 1.000000 1.000000
vn 0.0000 0.0000 1.0000
vn 0.0000 -1.0000 0.0000
vn -1.0000 0.0000 0.0000
vn 0.0000 0.0000 -1.0000
vn 1.0000 0.0000 0.0000
vn 0.0000 1.0000 0.0000
s off
f 5/1/1 3/2/1 1/3/1
f 3/4/2 8/5/2 4/6/2
f 7/7/3 6/8/3 8/5/3
f 2/9/4 8/10/4 6/11/4
f 1/12/5 4/13/5 2/14/5
f 5/15/6 2/14/6 6/16/6
f 5/1/1 7/17/1 3/2/1
f 3/4/2 7/7/2 8/5/2
f 7/7/3 5/18/3 6/8/3
f 2/9/4 4/19/4 8/10/4
f 1/12/5 3/20/5 4/13/5
f 5/15/6 1/12/6 2/14/6
